<?xml version="1.0" encoding="utf-8"?>
<!-- Designed by Vexels.com - 2016 All Rights Reserved - https://vexels.com/terms-and-conditions/  -->

<svg version="1.1" id="Capa_1" xmlns="http://www.w3.org/2000/svg" xmlns:xlink="http://www.w3.org/1999/xlink" x="0px" y="0px"
	 width="1200px" height="1200px" viewBox="0 0 1200 1200" enable-background="new 0 0 1200 1200" xml:space="preserve">
<g id="Capa_2">
</g>
<g>
	<g id="Capa_1_1_">
		<g>
			
				<radialGradient id="SVGID_1_" cx="450.1716" cy="878.6042" r="488.2632" gradientTransform="matrix(-4.371139e-008 1 1.5231 6.657638e-008 -752.3893 -131.2925)" gradientUnits="userSpaceOnUse">
				<stop  offset="0.283" style="stop-color:#F7E69D"/>
				<stop  offset="0.3041" style="stop-color:#F6E293"/>
				<stop  offset="0.3875" style="stop-color:#F0D372"/>
				<stop  offset="0.4773" style="stop-color:#ECC757"/>
				<stop  offset="0.5742" style="stop-color:#E9BE41"/>
				<stop  offset="0.6816" style="stop-color:#E7B733"/>
				<stop  offset="0.808" style="stop-color:#E5B32A"/>
				<stop  offset="1" style="stop-color:#E5B227"/>
			</radialGradient>
			<path fill="url(#SVGID_1_)" d="M600,50c303.753,0,550,246.248,550,550c0,303.753-246.247,550-550,550
				c-303.761,0-550-246.247-550-550C50,296.248,296.239,50,600,50z"/>
			<g>
				<g>
					<path fill="#684016" d="M286.579,602.082c0,0,156.288-71.458,189.787-17.867c33.498,53.592-20.093,98.254-58.06,75.918
						c-37.951-22.326-8.922-60.277-8.922-60.277s-60.293-2.234-122.806,26.787C286.579,622.174,286.579,602.082,286.579,602.082z"/>
					<path fill="#684016" d="M746.531,602.082c0,0,156.297-71.458,189.787-17.867c33.499,53.592-20.092,98.254-58.06,75.918
						c-37.951-22.326-8.921-60.277-8.921-60.277s-60.294-2.234-122.807,26.787C746.531,622.174,746.531,602.082,746.531,602.082z"/>
					<path fill="#684016" d="M847.003,459.175c0-8.929,40.186-104.933,178.624,46.888c24.553,2.234,24.553,2.234,24.553,2.234
						s-58.052-109.4-131.735-118.338c-73.684-8.945-107.174,20.085-116.104,66.981C831.371,463.643,847.003,459.175,847.003,459.175
						z"/>
					<path fill="#684016" d="M411.603,459.175c0,0-42.412-82.613-120.564-26.796c-78.16,55.826-100.479,104.948-100.479,104.948
						s26.803-96.019,84.855-133.97c58.051-37.951,133.961-22.311,162.99,40.201C429.469,452.48,411.603,459.175,411.603,459.175z"/>
					<path fill="#684016" d="M458.492,878.95c15.631,0,299.203,6.695,334.928-133.97c33.475,2.227,33.475,2.227,33.475,2.227
						s-2.227,125.032-162.992,149.602c-160.766,24.562-203.185,11.163-203.185,11.163L458.492,878.95z"/>
				</g>
			</g>
		</g>
	</g>
</g>
</svg>
